<svg width="635" height="578" viewBox="0 0 635 578" fill="none" xmlns="http://www.w3.org/2000/svg">
<g clip-path="url(#clip0_1_1176)">
<rect width="635" height="578" rx="25" fill="#285E67"/>
<path d="M635 140C635 62.6801 572.32 0 495 0H140C62.6801 0 0 62.6801 0 140V438C0 515.32 62.6801 578 140 578H495C572.32 578 635 515.32 635 438V140Z" fill="#1A4A52"/>
<circle cx="317.5" cy="289" r="150" fill="#2A656E" fill-opacity="0.3"/>
<circle cx="317.5" cy="289" r="100" fill="#346B74" fill-opacity="0.5"/>
<circle cx="317.5" cy="289" r="50" fill="#3E7A83" fill-opacity="0.7"/>
<path d="M317.5 239C344.614 239 367 261.386 367 288.5C367 315.614 344.614 338 317.5 338C290.386 338 268 315.614 268 288.5C268 261.386 290.386 239 317.5 239Z" fill="#4A8A93"/>
<path d="M317.5 264C331.031 264 342 274.969 342 288.5C342 302.031 331.031 313 317.5 313C303.969 313 293 302.031 293 288.5C293 274.969 303.969 264 317.5 264Z" fill="#5BA0A9"/>
</g>
<defs>
<clipPath id="clip0_1_1176">
<rect width="635" height="578" rx="25" fill="white"/>
</clipPath>
</defs>
</svg>
